<?xml version="1.0" encoding="UTF-8"?>
<!DOCTYPE svg PUBLIC "-//W3C//DTD SVG 1.1//EN" "http://www.w3.org/Graphics/SVG/1.1/DTD/svg11.dtd">
<svg xmlns="http://www.w3.org/2000/svg" version="1.1" width="512px" height="512px" style="shape-rendering:geometricPrecision; text-rendering:geometricPrecision; image-rendering:optimizeQuality; fill-rule:evenodd; clip-rule:evenodd" xmlns:xlink="http://www.w3.org/1999/xlink">
<g><path style="opacity:0.999" fill="#e7c711" d="M 189.5,93.5 C 140.833,122.5 92.1667,151.5 43.5,180.5C 42.2015,182.099 40.5348,182.599 38.5,182C 29.1667,176.667 19.8333,171.333 10.5,166C 8.86586,165.506 7.19919,165.34 5.5,165.5C 54.7747,135.855 104.441,106.689 154.5,78C 157.167,77.3333 159.833,77.3333 162.5,78C 171.646,82.9945 180.646,88.1612 189.5,93.5 Z"/></g>
<g><path style="opacity:0.996" fill="#fed513" d="M 285.5,84.5 C 285.047,85.4584 284.381,86.2917 283.5,87C 258.11,101.022 233.11,115.522 208.5,130.5C 206.248,130.916 204.748,132.249 204,134.5C 202.724,138.823 201.558,143.156 200.5,147.5C 194.633,150.596 188.967,153.929 183.5,157.5C 182.189,161.683 182.189,166.016 183.5,170.5C 195.726,177.777 208.059,184.777 220.5,191.5C 220.435,191.938 220.601,192.272 221,192.5C 257.085,171.54 293.252,150.707 329.5,130C 330.822,125.733 330.822,121.566 329.5,117.5C 323.536,113.848 317.536,110.181 311.5,106.5C 310.515,102.924 309.848,99.2577 309.5,95.5C 358.231,119.896 392.231,157.563 411.5,208.5C 409.059,209.084 407.559,210.417 407,212.5C 431,241.833 455,271.167 479,300.5C 481.857,310.623 478.357,317.789 468.5,322C 450.088,332.734 431.421,343.068 412.5,353C 406.548,354.33 400.548,354.663 394.5,354C 352.555,333.694 310.888,312.861 269.5,291.5C 266.769,293.192 264.102,294.858 261.5,296.5C 254.902,282.642 247.736,268.975 240,255.5C 226.587,234.753 209.754,217.253 189.5,203C 171.724,191.444 153.058,181.444 133.5,173C 116.044,168.329 98.3774,167.329 80.5,170C 68.1922,173.66 55.8589,177.16 43.5,180.5C 92.1667,151.5 140.833,122.5 189.5,93.5C 210.118,86.3873 231.285,81.7206 253,79.5C 264.055,79.8241 274.888,81.4908 285.5,84.5 Z"/></g>
<g><path style="opacity:0.994" fill="#fbfbfb" d="M 309.5,95.5 C 309.848,99.2577 310.515,102.924 311.5,106.5C 312.285,111.213 313.285,115.879 314.5,120.5C 285.024,136.492 255.858,153.159 227,170.5C 226.768,169.263 226.268,168.263 225.5,167.5C 223.991,158.119 222.157,148.786 220,139.5C 217.435,134.757 213.602,131.757 208.5,130.5C 233.11,115.522 258.11,101.022 283.5,87C 284.381,86.2917 285.047,85.4584 285.5,84.5C 298.862,76.1788 306.862,79.8454 309.5,95.5 Z"/></g>
<g><path style="opacity:1" fill="#2e373d" d="M 288.5,97.5 C 289.494,107.653 289.828,117.986 289.5,128.5C 288.828,129.267 287.995,129.934 287,130.5C 286.333,119.833 286.333,109.167 287,98.5C 287.383,97.944 287.883,97.6107 288.5,97.5 Z"/></g>
<g><path style="opacity:1" fill="#82888b" d="M 288.5,97.5 C 288.56,96.9569 288.893,96.6236 289.5,96.5C 290.823,107.326 290.823,117.993 289.5,128.5C 289.828,117.986 289.494,107.653 288.5,97.5 Z"/></g>
<g><path style="opacity:1" fill="#374046" d="M 281.5,100.5 C 282.376,100.369 283.043,100.702 283.5,101.5C 278.499,110.401 277.999,119.401 282,128.5C 282.667,130.167 282.667,131.833 282,133.5C 281,134.833 280,134.833 279,133.5C 278.178,131.212 277.511,128.878 277,126.5C 275.791,129.707 274.791,133.041 274,136.5C 273.331,139.267 272.164,139.767 270.5,138C 271.99,132.706 273.323,127.373 274.5,122C 273.37,117.609 272.036,113.275 270.5,109C 270.667,107.5 271.5,106.667 273,106.5C 274.614,107.817 275.781,109.483 276.5,111.5C 277.721,107.585 279.388,103.918 281.5,100.5 Z"/></g>
<g><path style="opacity:1" fill="#cccccc" d="M 311.5,106.5 C 317.536,110.181 323.536,113.848 329.5,117.5C 293.302,138.432 256.969,159.098 220.5,179.5C 207.966,172.404 195.633,165.07 183.5,157.5C 188.967,153.929 194.633,150.596 200.5,147.5C 200.039,149.55 199.372,151.55 198.5,153.5C 207.25,158.959 216.084,164.292 225,169.5C 225.464,168.906 225.631,168.239 225.5,167.5C 226.268,168.263 226.768,169.263 227,170.5C 255.858,153.159 285.024,136.492 314.5,120.5C 313.285,115.879 312.285,111.213 311.5,106.5 Z"/></g>
<g><path style="opacity:1" fill="#394147" d="M 261.5,112.5 C 265.233,121.921 266.733,131.921 266,142.5C 265.586,142.957 265.086,143.291 264.5,143.5C 263.851,141.376 263.017,139.376 262,137.5C 261,138.167 260,138.833 259,139.5C 258.818,142.226 258.318,144.893 257.5,147.5C 256.833,147.833 256.167,148.167 255.5,148.5C 255.167,147 254.833,145.5 254.5,144C 255.875,134.17 257.208,124.337 258.5,114.5C 259.739,114.058 260.739,113.391 261.5,112.5 Z"/></g>
<g><path style="opacity:1" fill="#363e44" d="M 248.5,152.5 C 247.833,143.833 247.167,135.167 246.5,126.5C 245.518,127.141 244.518,127.807 243.5,128.5C 242.24,126.647 242.24,124.814 243.5,123C 246.994,121.421 250.327,119.587 253.5,117.5C 254.948,120.213 254.281,122.213 251.5,123.5C 250.668,132.816 250.168,142.149 250,151.5C 249.617,152.056 249.117,152.389 248.5,152.5 Z"/></g>
<g><path style="opacity:1" fill="#667881" d="M 329.5,117.5 C 330.822,121.566 330.822,125.733 329.5,130C 293.252,150.707 257.085,171.54 221,192.5C 220.601,192.272 220.435,191.938 220.5,191.5C 220.5,187.5 220.5,183.5 220.5,179.5C 256.969,159.098 293.302,138.432 329.5,117.5 Z"/></g>
<g><path style="opacity:1" fill="#686f73" d="M 246.5,126.5 C 247.167,135.167 247.833,143.833 248.5,152.5C 248.44,153.043 248.107,153.376 247.5,153.5C 246.502,144.525 246.168,135.525 246.5,126.5 Z"/></g>
<g><path style="opacity:1" fill="#d5d7d8" d="M 260.5,123.5 C 261.806,126.687 261.806,130.02 260.5,133.5C 259.249,130.126 259.249,126.793 260.5,123.5 Z"/></g>
<g><path style="opacity:1" fill="#647882" d="M 208.5,130.5 C 213.602,131.757 217.435,134.757 220,139.5C 222.157,148.786 223.991,158.119 225.5,167.5C 225.631,168.239 225.464,168.906 225,169.5C 216.084,164.292 207.25,158.959 198.5,153.5C 199.372,151.55 200.039,149.55 200.5,147.5C 201.558,143.156 202.724,138.823 204,134.5C 204.748,132.249 206.248,130.916 208.5,130.5 Z"/></g>
<g><path style="opacity:1" fill="#58708a" d="M 365.5,154.5 C 363.801,154.34 362.134,154.506 360.5,155C 371.671,169.662 381.338,185.329 389.5,202C 388.5,202.667 387.5,202.667 386.5,202C 366.603,191.552 346.603,181.385 326.5,171.5C 335.945,164.936 345.945,159.103 356.5,154C 359.696,153.195 362.696,153.362 365.5,154.5 Z"/></g>
<g><path style="opacity:1" fill="#314e74" d="M 365.5,154.5 C 369.237,155.068 372.404,156.735 375,159.5C 384,174.833 393,190.167 402,205.5C 402.667,206.5 402.667,207.5 402,208.5C 356.752,234.54 311.585,260.707 266.5,287C 265.365,287.749 264.365,287.583 263.5,286.5C 255.079,271.325 246.912,255.992 239,240.5C 235.989,228.352 240.156,219.519 251.5,214C 276.555,199.809 301.555,185.643 326.5,171.5C 346.603,181.385 366.603,191.552 386.5,202C 387.5,202.667 388.5,202.667 389.5,202C 381.338,185.329 371.671,169.662 360.5,155C 362.134,154.506 363.801,154.34 365.5,154.5 Z"/></g>
<g><path style="opacity:1" fill="#566167" d="M 183.5,157.5 C 195.633,165.07 207.966,172.404 220.5,179.5C 220.5,183.5 220.5,187.5 220.5,191.5C 208.059,184.777 195.726,177.777 183.5,170.5C 182.189,166.016 182.189,161.683 183.5,157.5 Z"/></g>
<g><path style="opacity:1" fill="#c88001" d="M 5.5,165.5 C 7.19919,165.34 8.86586,165.506 10.5,166C 19.8333,171.333 29.1667,176.667 38.5,182C 40.5348,182.599 42.2015,182.099 43.5,180.5C 55.8589,177.16 68.1922,173.66 80.5,170C 98.3774,167.329 116.044,168.329 133.5,173C 153.058,181.444 171.724,191.444 189.5,203C 209.754,217.253 226.587,234.753 240,255.5C 247.736,268.975 254.902,282.642 261.5,296.5C 289.758,316.749 317.758,337.416 345.5,358.5C 352.823,366.48 357.49,375.813 359.5,386.5C 378.876,391.551 397.209,389.218 414.5,379.5C 439.004,365.749 463.338,351.749 487.5,337.5C 495.527,333.154 503.527,328.821 511.5,324.5C 511.5,336.167 511.5,347.833 511.5,359.5C 508.559,367.616 503.226,373.783 495.5,378C 466.663,394.919 437.663,411.586 408.5,428C 390.279,434.904 371.946,435.237 353.5,429C 347.114,425.807 340.78,422.64 334.5,419.5C 332.083,416.78 329.083,414.78 325.5,413.5C 325.863,391.425 319.696,371.425 307,353.5C 300.463,344.63 291.963,338.464 281.5,335C 274.451,333.114 268.618,334.947 264,340.5C 263.667,332.167 263.333,323.833 263,315.5C 256.526,311.683 250.026,308.016 243.5,304.5C 242.507,312.984 242.174,321.651 242.5,330.5C 235.946,326.972 229.446,323.305 223,319.5C 222.333,328.5 222.333,337.5 223,346.5C 229.277,350.052 235.444,353.719 241.5,357.5C 241.56,358.043 241.893,358.376 242.5,358.5C 243.498,349.525 243.832,340.525 243.5,331.5C 250.07,334.608 256.07,338.441 261.5,343C 256.923,352.587 255.257,362.754 256.5,373.5C 202.671,343.086 149.004,312.42 95.5,281.5C 92.5833,278.697 89.25,276.363 85.5,274.5C 85.3575,262.897 83.6908,251.564 80.5,240.5C 80.5,239.167 81.1667,238.5 82.5,238.5C 87.8061,241.488 93.1394,244.488 98.5,247.5C 99.8333,238.5 99.8333,229.5 98.5,220.5C 92.3028,216.569 85.9695,212.902 79.5,209.5C 78.8333,217.5 78.1667,225.5 77.5,233.5C 71.2074,218.712 61.2074,207.212 47.5,199C 35.2015,193.33 26.0349,196.497 20,208.5C 17.202,216.921 16.0353,225.587 16.5,234.5C 8.04028,227.245 2.37362,218.245 -0.5,207.5C -0.5,194.833 -0.5,182.167 -0.5,169.5C 1.22794,167.774 3.22794,166.441 5.5,165.5 Z"/></g>
<g><path style="opacity:1" fill="#263b57" d="M 95.5,183.5 C 111.783,183.148 127.783,185.148 143.5,189.5C 143.833,204.848 143.499,220.181 142.5,235.5C 115.01,221.588 87.6763,207.422 60.5,193C 71.9923,188.713 83.6589,185.546 95.5,183.5 Z"/></g>
<g><path style="opacity:0.999" fill="#2f373c" d="M 77.5,233.5 C 78.2638,236.018 79.2638,238.351 80.5,240.5C 83.6908,251.564 85.3575,262.897 85.5,274.5C 89.25,276.363 92.5833,278.697 95.5,281.5C 87.2207,285.975 78.8873,290.475 70.5,295C 60.7699,296.533 52.1033,294.2 44.5,288C 28.7213,273.612 19.3879,255.778 16.5,234.5C 16.0353,225.587 17.202,216.921 20,208.5C 26.0349,196.497 35.2015,193.33 47.5,199C 61.2074,207.212 71.2074,218.712 77.5,233.5 Z"/></g>
<g><path style="opacity:1" fill="#253b57" d="M 156.5,195.5 C 184.973,208.137 207.806,227.47 225,253.5C 231.294,264.586 237.46,275.753 243.5,287C 214.855,272.843 186.188,258.343 157.5,243.5C 156.501,227.514 156.167,211.514 156.5,195.5 Z"/></g>
<g><path style="opacity:1" fill="#9b6b12" d="M 79.5,209.5 C 79.3336,218.506 79.5002,227.506 80,236.5C 80.9947,237.066 81.828,237.733 82.5,238.5C 81.1667,238.5 80.5,239.167 80.5,240.5C 79.2638,238.351 78.2638,236.018 77.5,233.5C 78.1667,225.5 78.8333,217.5 79.5,209.5 Z"/></g>
<g><path style="opacity:1" fill="#e7c713" d="M 411.5,208.5 C 438.471,227.657 465.471,246.824 492.5,266C 502.106,275.387 508.44,286.553 511.5,299.5C 511.5,300.833 511.5,302.167 511.5,303.5C 503.622,307.025 496.456,311.692 490,317.5C 487.872,323.974 487.039,330.641 487.5,337.5C 463.338,351.749 439.004,365.749 414.5,379.5C 412.74,376.311 411.24,372.978 410,369.5C 406.376,364.514 401.543,362.681 395.5,364C 388.208,367.657 380.542,368.991 372.5,368C 363.275,365.384 354.275,362.217 345.5,358.5C 317.758,337.416 289.758,316.749 261.5,296.5C 264.102,294.858 266.769,293.192 269.5,291.5C 310.888,312.861 352.555,333.694 394.5,354C 400.548,354.663 406.548,354.33 412.5,353C 431.421,343.068 450.088,332.734 468.5,322C 478.357,317.789 481.857,310.623 479,300.5C 455,271.167 431,241.833 407,212.5C 407.559,210.417 409.059,209.084 411.5,208.5 Z"/></g>
<g><path style="opacity:1" fill="#2f373c" d="M 79.5,209.5 C 85.9695,212.902 92.3028,216.569 98.5,220.5C 99.8333,229.5 99.8333,238.5 98.5,247.5C 93.1394,244.488 87.8061,241.488 82.5,238.5C 81.828,237.733 80.9947,237.066 80,236.5C 79.5002,227.506 79.3336,218.506 79.5,209.5 Z"/></g>
<g><path style="opacity:1" fill="#c9c9c9" d="M 40.5,221.5 C 45.8138,220.99 50.4805,222.49 54.5,226C 66.598,237.926 69.7647,251.76 64,267.5C 58.7762,271.465 53.6095,271.298 48.5,267C 37.2572,256.608 32.7572,243.775 35,228.5C 36.6665,226.004 38.4998,223.671 40.5,221.5 Z"/></g>
<g><path style="opacity:1" fill="#647882" d="M 45.5,232.5 C 50.7871,233.061 54.6205,235.728 57,240.5C 59.9742,246.18 60.1409,251.847 57.5,257.5C 52.5151,259.569 48.6818,258.236 46,253.5C 42.8108,248.942 41.4775,243.942 42,238.5C 42.5637,236.113 43.7304,234.113 45.5,232.5 Z"/></g>
<g><path style="opacity:1" fill="#845f1c" d="M 121.5,233.5 C 120.507,242.318 120.173,251.318 120.5,260.5C 120.832,269.92 120.499,278.586 119.5,286.5C 119.5,277.5 119.5,268.5 119.5,259.5C 119.168,250.475 119.502,241.475 120.5,232.5C 121.107,232.624 121.44,232.957 121.5,233.5 Z"/></g>
<g><path style="opacity:1" fill="#2f373c" d="M 121.5,233.5 C 127.556,237.281 133.723,240.948 140,244.5C 140.667,253.5 140.667,262.5 140,271.5C 133.554,267.695 127.054,264.028 120.5,260.5C 120.173,251.318 120.507,242.318 121.5,233.5 Z"/></g>
<g><path style="opacity:1" fill="#30383c" d="M 119.5,259.5 C 119.5,268.5 119.5,277.5 119.5,286.5C 112.906,283.089 106.406,279.423 100,275.5C 99.3333,266.5 99.3333,257.5 100,248.5C 106.446,252.305 112.946,255.972 119.5,259.5 Z"/></g>
<g><path style="opacity:1" fill="#2f373c" d="M 162.5,257.5 C 168.473,260.821 174.473,264.155 180.5,267.5C 181.498,276.81 181.832,286.143 181.5,295.5C 175.33,291.581 168.997,287.914 162.5,284.5C 161.185,275.402 161.185,266.402 162.5,257.5 Z"/></g>
<g><path style="opacity:1" fill="#30373c" d="M 159.5,282.5 C 160.472,291.75 160.805,301.083 160.5,310.5C 154.031,307.098 147.697,303.431 141.5,299.5C 140.167,290.5 140.167,281.5 141.5,272.5C 147.554,275.858 153.554,279.191 159.5,282.5 Z"/></g>
<g><path style="opacity:1" fill="#2f373c" d="M 202.5,280.5 C 208.969,283.902 215.303,287.569 221.5,291.5C 222.833,300.5 222.833,309.5 221.5,318.5C 215.473,315.155 209.473,311.821 203.5,308.5C 202.528,299.25 202.195,289.917 202.5,280.5 Z"/></g>
<g><path style="opacity:1" fill="#735821" d="M 162.5,257.5 C 161.185,266.402 161.185,275.402 162.5,284.5C 161.833,293.167 161.167,301.833 160.5,310.5C 160.805,301.083 160.472,291.75 159.5,282.5C 160.167,273.991 160.833,265.324 161.5,256.5C 162.107,256.624 162.44,256.957 162.5,257.5 Z"/></g>
<g><path style="opacity:1" fill="#2f373c" d="M 181.5,295.5 C 187.67,299.419 194.003,303.086 200.5,306.5C 201.815,315.598 201.815,324.598 200.5,333.5C 194.527,330.179 188.527,326.845 182.5,323.5C 181.502,314.19 181.168,304.857 181.5,295.5 Z"/></g>
<g><path style="opacity:1" fill="#fefdfa" d="M 511.5,303.5 C 511.5,310.5 511.5,317.5 511.5,324.5C 503.527,328.821 495.527,333.154 487.5,337.5C 487.039,330.641 487.872,323.974 490,317.5C 496.456,311.692 503.622,307.025 511.5,303.5 Z"/></g>
<g><path style="opacity:1" fill="#7a5b1f" d="M 202.5,280.5 C 202.195,289.917 202.528,299.25 203.5,308.5C 202.833,317.009 202.167,325.676 201.5,334.5C 200.893,334.376 200.56,334.043 200.5,333.5C 201.815,324.598 201.815,315.598 200.5,306.5C 201.167,297.833 201.833,289.167 202.5,280.5 Z"/></g>
<g><path style="opacity:1" fill="#2f373c" d="M 242.5,330.5 C 242.827,339.682 242.493,348.682 241.5,357.5C 235.444,353.719 229.277,350.052 223,346.5C 222.333,337.5 222.333,328.5 223,319.5C 229.446,323.305 235.946,326.972 242.5,330.5 Z"/></g>
<g><path style="opacity:1" fill="#7e5c1e" d="M 243.5,304.5 C 243.5,313.5 243.5,322.5 243.5,331.5C 243.832,340.525 243.498,349.525 242.5,358.5C 241.893,358.376 241.56,358.043 241.5,357.5C 242.493,348.682 242.827,339.682 242.5,330.5C 242.174,321.651 242.507,312.984 243.5,304.5 Z"/></g>
<g><path style="opacity:1" fill="#2f373c" d="M 243.5,304.5 C 250.026,308.016 256.526,311.683 263,315.5C 263.333,323.833 263.667,332.167 264,340.5C 268.618,334.947 274.451,333.114 281.5,335C 291.963,338.464 300.463,344.63 307,353.5C 319.696,371.425 325.863,391.425 325.5,413.5C 329.083,414.78 332.083,416.78 334.5,419.5C 326.221,423.975 317.887,428.475 309.5,433C 300.131,434.321 291.798,431.988 284.5,426C 269.005,411.847 259.672,394.347 256.5,373.5C 255.257,362.754 256.923,352.587 261.5,343C 256.07,338.441 250.07,334.608 243.5,331.5C 243.5,322.5 243.5,313.5 243.5,304.5 Z"/></g>
<g><path style="opacity:1" fill="#c8c8c8" d="M 280.5,359.5 C 289.032,359.525 295.532,363.192 300,370.5C 305.793,379.003 308.126,388.337 307,398.5C 303.566,407.941 297.399,410.108 288.5,405C 275.324,393.116 271.491,378.95 277,362.5C 278.145,361.364 279.312,360.364 280.5,359.5 Z"/></g>
<g><path style="opacity:1" fill="#fefefb" d="M 345.5,358.5 C 354.275,362.217 363.275,365.384 372.5,368C 380.542,368.991 388.208,367.657 395.5,364C 401.543,362.681 406.376,364.514 410,369.5C 411.24,372.978 412.74,376.311 414.5,379.5C 397.209,389.218 378.876,391.551 359.5,386.5C 357.49,375.813 352.823,366.48 345.5,358.5 Z"/></g>
<g><path style="opacity:1" fill="#647882" d="M 284.5,370.5 C 292.27,371.431 297.103,375.765 299,383.5C 299.921,388.073 299.088,392.239 296.5,396C 290.693,396.575 286.526,394.075 284,388.5C 280.537,382.287 280.704,376.287 284.5,370.5 Z"/></g>
</svg>
